<svg xmlns="http://www.w3.org/2000/svg" viewBox="0 0 405 389" fill="none">
  <path d="M 0.0,205.5 188.0,204.5 191.5,207.0 191.5,383.0 190.0,386.5 8.0,387.5 1.0,386.5 0.0,384.5 Z M 210.5,0.0 249.0,4.5 288.0,17.5 326.0,39.5 352.0,61.5 373.5,87.0 372.5,88.0 382.5,103.0 391.5,125.0 394.5,128.0 393.5,130.0 403.5,168.0 403.5,181.0 392.0,183.5 387.0,182.5 383.0,184.5 374.0,184.5 374.0,182.5 358.0,182.5 358.0,184.5 356.0,182.5 354.0,184.5 353.0,182.5 309.0,183.5 305.5,180.0 305.5,171.0 298.5,144.0 290.5,128.0 278.5,112.0 263.0,98.5 244.0,87.5 213.0,79.5 189.0,79.5 174.0,82.5 162.0,86.5 136.0,101.5 135.5,104.0 134.0,103.5 134.5,105.0 129.0,108.5 122.0,117.5 119.5,118.0 111.5,130.0 101.5,153.0 97.5,170.0 97.5,180.0 95.0,182.5 4.0,183.5 0.0,179.5 Z M 230.5,388.0 230.0,386.5 214.0,386.5 212.5,385.0 212.5,337.0 214.0,335.5 342.0,335.5 342.5,325.0 341.0,320.5 213.0,319.5 212.5,206.0 214.0,204.5 401.0,204.5 403.5,207.0 404.0,229.5 Z M 266.0,184.5 259.0,184.5 259.0,182.5 256.0,184.5 245.0,182.5 242.0,184.5 237.0,184.5 239.5,183.0 235.0,182.5 234.0,184.5 232.0,182.5 230.0,184.5 229.0,182.5 227.0,184.5 212.0,184.5 212.0,182.5 209.0,184.5 193.0,182.5 191.0,184.5 185.0,184.5 184.0,182.5 168.0,182.5 169.0,184.5 165.0,182.5 163.0,184.5 159.0,182.5 153.0,182.5 151.0,184.5 150.0,182.5 146.0,184.5 139.0,184.5 139.0,182.5 127.0,182.5 125.5,172.0 129.5,156.0 138.5,138.0 155.0,120.5 172.0,111.5 185.0,107.5 198.0,105.5 213.0,106.5 226.0,109.5 241.0,117.5 244.0,117.5 260.0,133.5 263.5,135.0 273.5,155.0 277.5,170.0 277.5,181.0 274.0,183.5 260.5,183.0 266.0,184.5 Z M 0.0,176.5 3.5,148.0 13.5,118.0 31.5,86.0 57.0,56.5 83.0,35.5 115.0,17.5 154.0,4.5 191.5,0.0 Z M 138.5,336.0 138.0,254.5 52.5,255.0 53.0,336.5 138.5,336.0 Z M 404.0,251.5 401.0,255.5 274.0,255.5 272.5,257.0 273.0,270.5 401.0,270.5 404.0,275.5 Z M 404.0,276.5 403.5,384.0 402.0,386.5 384.5,388.0 Z M 292.5,388.0 292.0,386.5 240.0,386.5 232.5,388.0 Z M 340.5,388.0 332.0,386.5 297.0,386.5 296.5,388.0 Z M 382.5,388.0 383.0,386.5 341.5,388.0 Z M 295.5,388.0 295.0,386.5 293.5,388.0 Z M 125.0,170.5 125.0,168.5 125.0,170.5 Z M 136.0,184.5 134.5,184.0 136.0,184.5 Z M 365.0,184.5 359.5,184.0 365.0,184.5 Z" fill="#8795F6" fill-rule="evenodd"/>
</svg>